<svg xmlns="http://www.w3.org/2000/svg" xmlns:xlink="http://www.w3.org/1999/xlink" width="484" height="333" viewBox="0 0 484 333">
  <defs>
    <linearGradient id="linear-gradient" x1="0.5" x2="0.5" y2="1" gradientUnits="objectBoundingBox">
      <stop offset="0" stop-color="#fff"/>
      <stop offset="1" stop-color="#98a5d2" stop-opacity="0.322"/>
      <stop offset="1" stop-color="gray"/>
    </linearGradient>
  </defs>
  <g id="Rectangle_141957" data-name="Rectangle 141957" stroke="rgba(112,112,112,0.17)" stroke-width="1" fill="url(#linear-gradient)">
    <path d="M0,0H484a0,0,0,0,1,0,0V325a8,8,0,0,1-8,8H8a8,8,0,0,1-8-8V0A0,0,0,0,1,0,0Z" stroke="none"/>
    <path d="M1,.5H483a.5.5,0,0,1,.5.5V325a7.5,7.5,0,0,1-7.5,7.5H8A7.5,7.5,0,0,1,.5,325V1A.5.5,0,0,1,1,.5Z" fill="none"/>
  </g>
</svg>
